<?xml version="1.0" standalone="no"?>
<!DOCTYPE svg PUBLIC "-//W3C//DTD SVG 20010904//EN"
 "http://www.w3.org/TR/2001/REC-SVG-20010904/DTD/svg10.dtd">
<svg version="1.0" xmlns="http://www.w3.org/2000/svg"
 width="512.000000pt" height="512.000000pt" viewBox="0 0 512.000000 512.000000"
 preserveAspectRatio="xMidYMid meet">

<g transform="translate(0.000000,512.000000) scale(0.100000,-0.100000)"
fill="#000000" stroke="none">
<path d="M150 5113 c0 -20 424 -722 433 -716 6 4 8 0 5 -8 -4 -10 1 -16 16
-18 35 -4 40 -4 60 5 12 5 17 4 13 -3 -11 -17 43 -6 66 14 11 10 17 12 13 6
-9 -17 30 -18 40 -1 5 7 3 8 -6 3 -9 -5 -11 -4 -6 4 4 6 12 9 17 6 17 -11 50
-14 44 -4 -4 5 -10 7 -15 4 -17 -10 -19 13 -3 26 10 8 14 9 10 2 -4 -6 -3 -14
3 -18 19 -12 49 -83 45 -106 -4 -22 -3 -22 9 -6 14 18 32 24 21 7 -3 -5 1 -10
10 -10 14 0 16 6 10 28 -3 15 -14 35 -23 46 -9 10 -17 28 -17 40 -1 12 -6 20
-15 18 -11 -3 -11 0 -1 12 14 16 36 12 26 -5 -4 -5 1 -9 9 -9 18 0 32 20 14
21 -7 0 -3 4 10 10 13 5 21 13 18 18 -4 5 2 8 11 7 10 -2 29 4 43 13 13 9 21
11 17 4 -4 -6 -3 -14 2 -17 10 -7 9 13 -2 30 -11 18 3 24 30 13 14 -5 28 -7
31 -4 3 3 0 5 -7 5 -7 0 -9 5 -6 10 3 6 -1 10 -9 10 -9 0 -16 5 -16 11 0 5 5
7 11 3 10 -6 -14 41 -204 404 l-79 152 -314 0 c-173 0 -314 -3 -314 -7z m422
-233 c130 -209 153 -250 139 -250 -14 0 -39 38 -138 215 -50 88 -101 178 -113
200 -54 93 5 6 112 -165z m-159 48 c19 -38 6 -49 -25 -22 -22 21 -38 55 -31
67 8 13 40 -12 56 -45z"/>
<path d="M1145 5063 c14 -32 63 -138 108 -235 68 -147 84 -176 102 -175 11 1
25 8 31 15 8 12 15 12 32 3 24 -13 28 -26 10 -37 -6 -4 -17 1 -25 11 -7 11
-13 14 -13 8 0 -6 6 -16 14 -22 21 -18 56 3 51 29 -2 11 1 23 7 26 7 5 8 2 3
-7 -7 -12 -6 -12 7 -1 10 8 14 20 10 30 -3 9 -43 105 -87 212 l-82 195 -96 3
-97 3 25 -58z"/>
<path d="M1562 5038 c17 -46 43 -120 57 -165 l27 -81 87 59 c82 57 85 61 77
87 -5 15 -19 62 -31 105 l-22 77 -113 0 -113 0 31 -82z"/>
<path d="M1974 5103 c3 -10 10 -37 16 -60 6 -24 14 -43 17 -43 3 0 47 13 97
29 155 50 231 62 411 68 147 5 185 3 282 -16 62 -12 151 -34 197 -49 47 -15
84 -25 84 -22 -1 3 3 16 9 30 6 14 13 37 17 53 l6 27 -570 0 c-539 0 -571 -1
-566 -17z"/>
<path d="M3310 5096 c-24 -65 -51 -166 -46 -175 10 -16 120 -75 135 -72 7 1
10 -2 6 -8 -3 -6 -2 -11 2 -11 6 0 64 145 111 278 3 9 -20 12 -97 12 -98 0
-102 -1 -111 -24z"/>
<path d="M3712 5073 c-11 -27 -50 -119 -87 -207 l-68 -158 55 -55 c43 -42 57
-51 61 -39 3 8 1 18 -5 22 -7 4 -8 3 -4 -4 11 -17 -9 -15 -24 3 -7 8 -9 15 -6
15 4 0 2 9 -4 20 -6 12 -16 17 -27 13 -11 -4 -14 -2 -11 8 5 15 41 13 46 -2 5
-13 36 -11 51 4 11 10 13 9 7 -5 -16 -44 -16 -51 -2 -28 8 14 13 33 9 44 -3
11 -1 16 5 12 5 -3 20 15 32 42 75 160 148 320 154 340 7 22 6 22 -77 22 l-85
0 -20 -47z"/>
<path d="M4100 4798 c-117 -240 -156 -326 -148 -336 8 -9 7 -11 -4 -7 -9 4
-18 0 -21 -8 -3 -9 0 -14 9 -13 16 2 43 26 30 26 -5 0 -3 7 4 15 7 8 16 13 20
10 5 -3 12 0 16 6 4 7 3 9 -4 5 -18 -11 -23 11 -5 25 10 8 14 9 10 2 -11 -18
12 -26 31 -10 9 8 22 13 28 10 6 -2 16 8 22 22 7 15 8 24 3 20 -5 -3 -13 0
-17 6 -4 7 -3 9 2 6 17 -10 30 6 89 118 33 61 96 177 142 260 46 82 83 153 83
157 0 4 -29 8 -65 8 l-66 0 -159 -322z"/>
<path d="M4323 4948 c-44 -95 -124 -262 -176 -370 -65 -134 -90 -194 -76 -185
10 6 19 15 19 19 0 5 6 8 14 8 8 0 16 6 19 13 3 8 18 13 39 12 18 -1 38 0 43
4 15 9 28 8 47 -1 15 -7 26 7 67 89 27 54 56 107 65 118 32 42 14 -4 -47 -117
-52 -94 -60 -115 -43 -109 12 5 27 6 34 4 7 -3 24 2 37 11 23 15 24 15 19 -1
-5 -17 -5 -17 6 0 6 9 8 23 4 30 -4 6 -4 9 1 5 5 -5 30 31 58 80 100 177 219
373 224 368 6 -6 -124 -256 -212 -406 -35 -60 -69 -120 -75 -132 -11 -22 -11
-22 8 1 15 18 21 21 25 10 4 -11 6 -10 6 2 1 27 75 43 83 18 2 -5 29 32 59 83
31 51 122 201 201 333 80 133 150 251 157 263 l12 22 -268 0 -268 0 -82 -172z
m276 85 c-49 -87 -79 -133 -85 -133 -6 0 40 85 83 153 36 58 38 44 2 -20z"/>
<path d="M2450 5069 c-185 -15 -375 -69 -543 -154 -141 -71 -221 -129 -348
-252 -126 -123 -193 -214 -287 -388 -39 -71 -79 -141 -90 -155 -39 -50 -111
-298 -112 -383 0 -16 -11 -43 -24 -60 -16 -21 -28 -56 -35 -105 -12 -78 -6
-103 28 -121 16 -9 19 -28 25 -148 10 -200 60 -574 101 -753 40 -175 43 -163
-44 -202 -34 -16 -55 -19 -96 -13 -34 4 -69 1 -96 -6 -50 -15 -103 -65 -113
-105 -4 -15 -20 -43 -36 -61 -31 -35 -46 -88 -36 -128 8 -32 61 -91 108 -121
20 -13 74 -34 119 -46 80 -23 83 -25 120 -78 21 -30 39 -61 39 -68 0 -7 -16
-28 -35 -47 -64 -64 -73 -198 -21 -288 16 -26 23 -48 17 -51 -19 -12 -337
-104 -376 -109 -53 -6 -280 -105 -376 -163 -81 -49 -109 -83 -109 -132 0 -17
-6 -32 -15 -35 -42 -17 -129 -271 -166 -485 -35 -209 -20 -192 40 43 66 255
107 369 149 402 42 36 65 30 109 -29 68 -90 68 -106 0 -35 -58 61 -67 67 -86
58 -17 -10 -19 -15 -10 -38 15 -40 21 -46 29 -33 17 27 131 -73 169 -149 23
-45 55 -155 49 -172 -9 -27 -185 187 -248 303 l-28 50 -15 -48 c-9 -27 -23
-92 -32 -144 -8 -52 -17 -107 -20 -122 -3 -21 -1 -26 10 -21 9 3 22 -1 31 -8
15 -12 16 -9 11 28 -4 23 -2 45 3 48 6 3 10 11 10 16 0 6 -4 8 -9 5 -5 -4 -8
2 -7 11 2 10 7 18 12 19 5 0 17 4 27 9 14 6 15 10 6 21 -9 11 -9 14 0 14 36 0
116 -71 188 -165 40 -52 69 -110 51 -99 -7 4 -4 -2 6 -14 30 -34 14 -35 -37
-2 -26 16 -65 39 -86 49 l-39 20 -18 -21 c-12 -14 -13 -18 -4 -13 20 13 41 15
35 5 -3 -5 1 -11 7 -14 7 -3 4 -4 -8 -1 -14 4 -21 0 -21 -10 0 -8 2 -13 5 -11
6 6 93 -48 125 -78 34 -31 35 -56 4 -56 -59 0 -207 -65 -207 -90 0 -5 21 -2
46 6 28 8 63 11 86 8 37 -6 39 -9 33 -33 -4 -14 -18 -41 -31 -58 l-25 -33 33
-13 c23 -10 77 -14 173 -15 l140 0 -125 12 c-69 7 -128 11 -133 9 -11 -6 -9 5
15 80 26 79 43 92 120 84 38 -3 69 -18 158 -77 61 -41 116 -82 121 -92 9 -17
41 -18 666 -18 l655 0 -7 58 c-3 31 -8 68 -11 82 l-4 25 9 -25 c5 -14 15 -51
21 -82 l11 -58 50 0 c43 0 50 3 45 18 -17 63 -46 205 -42 209 5 6 19 -40 43
-150 l18 -77 81 0 81 0 7 106 c4 59 16 177 27 263 12 92 23 243 26 369 4 171
8 212 19 212 10 0 14 -16 15 -57 0 -32 4 -80 9 -108 6 -42 8 -33 9 58 l1 107
34 0 c19 0 69 7 112 15 43 8 80 12 83 10 3 -3 8 -67 11 -143 l7 -137 1 147 c3
202 22 207 23 6 1 -146 15 -171 18 -32 1 72 27 161 47 161 10 0 13 -19 11 -86
-2 -47 -7 -95 -12 -106 -8 -18 -7 -19 8 -6 9 7 17 20 17 29 0 8 3 13 6 9 9 -9
-25 -115 -56 -177 l-29 -55 -2 45 c-1 36 -4 27 -15 -45 -7 -49 -17 -101 -23
-115 -9 -23 -10 -21 -12 20 -1 32 -74 -417 -79 -482 0 -5 16 -8 35 -8 20 0 35
5 35 12 0 20 42 169 47 165 2 -3 -2 -31 -10 -63 -32 -126 -34 -114 22 -114
l49 0 15 63 c8 34 15 51 16 37 0 -14 -3 -42 -8 -62 l-9 -38 661 0 660 0 54 26
c76 35 201 66 241 59 35 -7 67 9 55 28 -4 6 0 8 9 5 8 -4 15 -1 15 6 0 29
-160 -1 -250 -46 -56 -28 -56 -16 0 20 64 41 130 70 180 78 34 5 44 3 61 -16
11 -12 19 -29 17 -38 -1 -9 2 -22 7 -29 6 -7 5 -14 -3 -19 -8 -5 -9 -3 -4 6 6
9 4 11 -5 5 -9 -6 -11 -4 -5 5 6 9 4 11 -4 5 -9 -5 -6 -14 12 -34 24 -26 27
-54 4 -46 -7 3 -48 1 -92 -4 l-80 -8 106 -2 c58 0 120 4 138 10 17 6 31 12 31
12 0 1 -11 24 -25 51 -14 27 -25 55 -25 61 0 7 21 15 50 19 27 4 52 11 55 17
8 12 -67 46 -123 55 -23 4 -42 10 -42 15 0 20 56 70 105 94 35 17 52 31 49 40
-3 7 4 23 15 34 12 12 17 21 12 21 -16 0 -101 -39 -162 -75 l-59 -34 15 37 c9
20 37 68 62 106 66 96 62 113 -7 38 l-59 -63 26 83 c46 153 95 251 161 327
l38 44 32 -17 c60 -31 84 -91 177 -436 48 -180 54 -196 49 -135 -9 115 -83
406 -129 510 -12 28 -34 61 -49 74 -19 18 -26 34 -26 62 0 31 -6 43 -37 69
-81 66 -400 210 -467 210 -18 0 -50 7 -71 16 -21 8 -92 30 -159 48 -83 23
-122 38 -124 49 -2 9 8 33 22 54 33 50 41 106 26 179 -10 46 -21 67 -52 98
-45 45 -44 55 15 130 17 23 31 42 32 43 1 2 36 12 78 22 128 33 189 76 222
154 19 46 8 100 -30 145 -13 15 -27 40 -30 54 -10 38 -77 98 -121 109 -22 5
-62 6 -90 3 -40 -5 -61 -1 -95 14 -87 41 -85 32 -50 189 52 232 111 703 111
885 0 10 11 24 25 30 13 6 27 19 30 28 10 32 -16 163 -39 195 -15 20 -28 63
-39 127 -22 130 -72 282 -101 311 -13 12 -51 76 -85 141 -34 65 -87 155 -118
200 -75 108 -257 287 -368 362 -275 187 -607 279 -915 253z m380 -53 c211 -48
407 -137 571 -261 99 -74 241 -218 294 -298 35 -53 37 -60 31 -111 -9 -77 -14
-88 -37 -76 -17 9 -18 19 -13 83 l6 72 -43 53 -43 53 -12 -69 c-15 -88 -39
-134 -27 -52 14 97 9 145 -20 179 l-26 31 3 -26 c4 -35 -23 -187 -35 -199 -7
-7 -8 20 -4 80 6 97 -7 92 -19 -7 -4 -32 -11 -58 -15 -58 -5 0 -29 9 -53 20
l-45 20 4 147 c4 116 2 152 -9 166 -12 16 -13 6 -10 -77 5 -119 -5 -229 -21
-223 -7 3 -10 11 -8 18 9 33 12 247 4 283 -8 36 -14 41 -108 92 -55 29 -100
52 -101 51 -2 -1 6 -33 16 -70 11 -38 22 -106 26 -151 l7 -84 36 -10 c20 -6
51 -13 69 -17 19 -4 32 -13 32 -21 0 -9 -4 -12 -10 -9 -6 4 -7 -5 -4 -23 4
-18 1 -32 -6 -37 -9 -5 -10 -1 -5 16 4 17 3 20 -3 10 -8 -11 -18 -8 -55 18
-54 37 -57 37 -57 11 0 -11 -4 -20 -10 -20 -6 0 -10 38 -10 95 0 97 -20 222
-46 284 -21 50 -28 31 -10 -29 38 -128 45 -357 10 -343 -11 4 -14 28 -14 114
0 102 -18 225 -41 286 -16 43 -18 21 -3 -36 23 -91 36 -220 29 -287 -10 -96
-22 -77 -17 27 5 102 -11 224 -37 285 -17 38 -22 41 -92 61 -40 12 -75 20 -77
19 -2 -2 6 -30 17 -62 15 -46 35 -75 90 -131 44 -46 72 -68 75 -60 3 6 3 -6 0
-28 -9 -65 -30 -95 -64 -95 -17 0 -30 5 -30 12 0 6 -14 -1 -31 -18 -28 -27
-36 -29 -126 -33 -78 -2 -94 -1 -87 10 4 8 22 37 39 64 52 82 94 181 84 196
-5 8 -8 21 -8 29 0 10 2 11 6 3 7 -18 30 -16 37 2 3 9 -2 39 -12 68 -16 50
-18 52 -62 59 -58 9 -333 10 -384 1 -45 -7 -57 -30 -77 -136 -16 -86 -2 -151
47 -221 l37 -51 -32 29 c-17 17 -40 48 -51 71 -26 54 -27 169 -1 243 l19 54
-37 -7 c-62 -11 -171 -47 -171 -57 0 -6 -7 -8 -15 -4 -8 3 -21 -1 -29 -9 -7
-8 -16 -11 -19 -8 -10 9 -196 -95 -287 -160 -157 -114 -283 -249 -337 -362
l-24 -50 5 39 c14 110 255 355 471 479 151 88 351 153 536 177 115 14 308 3
429 -24z m-49 -168 c6 -13 8 -20 4 -15 -5 4 -26 -30 -47 -75 -22 -46 -53 -104
-70 -130 -27 -44 -34 -48 -68 -48 -22 0 -42 5 -46 12 -4 6 -3 8 3 5 10 -6 47
38 48 56 0 4 5 11 11 15 19 13 105 140 102 152 -2 7 5 14 15 15 10 2 15 -1 11
-8 -3 -7 1 -3 10 7 8 10 13 23 10 27 -3 5 -3 9 0 9 3 0 11 -10 17 -22z m-770
-54 c-5 -21 -9 -30 -10 -19 -1 24 10 67 15 62 3 -2 0 -22 -5 -43z m49 14 c0
-6 -5 -40 -11 -75 -11 -62 -29 -86 -29 -38 0 40 21 125 31 125 5 0 9 -5 9 -12z
m22 -93 c-8 -60 -10 -63 -11 -25 -1 50 11 134 16 110 2 -8 -1 -46 -5 -85z
m557 27 c-17 -32 -39 -59 -47 -59 -12 0 -12 2 2 12 8 7 13 15 9 18 -3 4 -1 7
5 7 6 0 21 18 32 40 11 22 23 40 26 40 3 0 -9 -26 -27 -58z m-814 -254 c4 -17
3 -28 -3 -28 -21 0 -38 164 -26 242 8 49 9 44 15 -67 3 -66 10 -132 14 -147z
m172 210 c-2 -13 -4 -5 -4 17 -1 22 1 32 4 23 2 -10 2 -28 0 -40z m-227 -90
c1 -40 4 -92 9 -115 l8 -41 -53 -20 c-60 -22 -56 -25 -69 52 -5 29 -2 43 12
59 10 12 11 17 3 10 -13 -9 -15 -7 -15 17 -1 27 8 32 32 17 12 -7 26 7 29 30
1 7 -2 15 -6 18 -5 3 -7 -4 -5 -15 2 -11 0 -18 -5 -15 -19 11 -3 40 22 39 14
-1 25 4 25 12 0 11 -3 11 -16 1 -14 -11 -14 -10 -2 6 24 31 31 18 31 -55z
m811 49 c-6 -8 -7 -18 -3 -22 4 -5 2 -5 -5 -1 -6 3 -16 -1 -21 -10 -6 -11 -11
-13 -16 -5 -4 6 0 14 8 17 9 3 13 11 9 17 -3 5 -1 7 5 3 6 -3 13 -2 17 4 3 5
9 10 12 10 3 0 0 -6 -6 -13z m-581 -83 c0 -36 -4 -64 -10 -64 -6 0 -10 30 -10
71 0 44 4 68 10 64 6 -3 10 -35 10 -71z m40 0 c0 -30 -4 -54 -9 -54 -11 0 -24
82 -15 103 12 31 24 6 24 -49z m43 4 c3 -21 2 -38 -4 -38 -5 0 -9 19 -9 42 0
49 5 47 13 -4z m447 23 c0 -5 -7 -12 -16 -15 -14 -5 -15 -4 -4 9 14 17 20 19
20 6z m-895 -48 c-1 -16 4 -55 11 -88 7 -33 9 -64 5 -68 -15 -16 -35 148 -22
181 4 10 8 -3 6 -25z m1140 -13 c230 -20 404 -59 600 -135 145 -56 239 -111
387 -227 62 -48 126 -91 142 -95 53 -11 75 -114 40 -188 -26 -56 -49 -55 -145
11 -46 31 -83 61 -82 65 2 5 -5 5 -14 2 -10 -4 -14 -2 -9 5 3 6 1 14 -5 18 -8
5 -9 3 -4 -6 5 -8 3 -11 -6 -8 -8 3 -13 11 -11 17 1 7 -2 10 -7 7 -5 -3 -48
12 -96 34 -318 146 -757 218 -1168 191 -165 -11 -358 -39 -457 -66 -68 -18
-98 -18 -50 0 55 21 23 17 -76 -10 -209 -55 -434 -166 -525 -258 -35 -35 -54
-48 -71 -45 -44 6 -70 105 -48 183 10 37 17 45 36 45 13 0 63 32 121 77 178
139 295 204 487 272 158 56 359 98 541 114 90 8 308 6 420 -3z m-1414 -211
c-5 -24 -10 -35 -11 -24 -1 12 -17 -11 -41 -60 -21 -44 -39 -72 -39 -61 0 18
90 199 97 193 1 -2 -1 -23 -6 -48z m2450 -63 c22 -43 38 -80 36 -83 -5 -4 -32
40 -65 102 -9 17 -11 15 -17 -18 -11 -58 -29 -46 -21 16 3 28 6 61 6 72 0 26
8 15 61 -89z m-1081 -66 c432 -27 775 -130 1051 -315 46 -31 92 -61 102 -66
27 -15 56 7 80 59 l21 47 18 -90 c10 -49 16 -99 15 -110 -1 -11 -9 17 -16 63
l-14 83 -30 -36 c-25 -31 -35 -36 -63 -33 -30 4 -32 1 -38 -32 -5 -31 -2 -38
29 -63 19 -16 35 -36 35 -44 0 -10 -12 -3 -31 18 -30 32 -32 33 -40 14 -12
-29 -57 -399 -50 -407 4 -4 21 -10 38 -14 24 -5 35 -2 49 14 17 20 41 21 28 1
-3 -5 0 -8 8 -7 7 2 13 -6 13 -17 0 -16 -6 -20 -32 -18 -44 4 -50 -13 -17 -48
34 -36 56 -37 83 -3 28 36 41 81 50 176 6 64 9 71 10 34 3 -123 -41 -248 -90
-254 -15 -2 -58 14 -104 38 -44 22 -85 40 -93 40 -10 0 -10 5 -2 20 6 11 8 24
5 29 -9 16 -131 52 -150 45 -14 -6 -16 -4 -10 6 6 10 2 11 -18 7 -14 -4 -40
-4 -58 0 -28 5 -30 7 -14 14 13 5 5 7 -25 6 -47 -1 -251 32 -260 42 -9 11
-236 16 -718 16 -265 0 -482 2 -482 5 0 3 -21 4 -47 3 -46 -2 -45 -1 12 8 58
10 86 13 151 17 23 2 33 9 41 30 l11 27 1 -29 c1 -24 4 -27 24 -22 12 3 32 6
45 6 22 0 22 2 22 140 0 133 10 178 24 109 10 -51 7 -229 -4 -229 -22 0 -8
-16 15 -18 19 -1 28 5 35 23 5 14 17 28 25 31 13 5 15 45 15 286 l0 279 -52
-5 c-29 -3 -84 -8 -123 -11 -98 -9 -327 -60 -426 -95 -157 -54 -174 -61 -271
-113 -61 -32 -98 -57 -98 -67 0 -9 9 -65 20 -125 11 -60 18 -110 16 -112 -4
-5 -17 53 -37 165 -7 39 -15 72 -19 72 -3 0 -27 -13 -53 -30 -38 -24 -47 -35
-47 -57 1 -39 65 -391 72 -399 6 -5 96 19 119 32 3 2 -1 54 -8 116 -13 104
-13 117 3 166 22 67 26 59 50 -117 10 -75 23 -135 30 -138 6 -2 79 10 162 26
82 17 161 31 173 30 13 0 -55 -16 -151 -36 -96 -19 -178 -40 -182 -46 -14 -21
-8 -47 10 -48 14 0 -62 -28 -79 -29 -3 0 -4 11 -1 25 5 30 -5 31 -74 9 -63
-21 -71 -29 -45 -44 20 -10 14 -15 -76 -61 -114 -58 -132 -56 -163 14 -31 69
-58 247 -39 247 5 0 9 -17 9 -38 0 -96 41 -225 76 -239 9 -3 27 5 42 19 15 14
38 32 51 41 23 15 22 15 -16 10 -29 -4 -44 -1 -56 12 -22 21 -21 28 3 50 17
15 20 16 20 3 0 -32 27 -42 76 -28 38 11 45 16 41 34 -3 12 -20 105 -38 209
l-33 187 -33 -32 c-18 -17 -33 -27 -33 -22 0 6 13 23 30 39 45 44 39 105 -10
105 -29 0 -70 39 -70 66 0 8 -4 14 -10 14 -19 0 -10 -47 20 -103 35 -67 36
-71 11 -57 -13 7 -28 7 -45 0 -23 -8 -26 -7 -26 13 0 37 33 197 41 197 4 0 10
-15 13 -34 7 -36 41 -86 58 -86 6 0 52 26 102 59 122 79 211 123 363 180 222
83 482 137 728 150 77 5 145 9 150 9 6 1 84 -3 175 -8z m1320 -569 c0 -47 -16
-28 -24 29 -6 42 -6 44 9 26 8 -11 15 -36 15 -55z m-3001 -40 c-4 -30 -14 -59
-20 -65 -9 -8 -10 -7 -6 6 3 9 9 34 12 55 8 47 14 67 19 62 2 -2 0 -28 -5 -58z
m3036 6 c3 -23 9 -51 12 -62 4 -14 2 -17 -5 -10 -13 12 -33 127 -21 120 4 -3
10 -24 14 -48z m-3008 11 c-3 -8 -6 -5 -6 6 -1 11 2 17 5 13 3 -3 4 -12 1 -19z
m2881 -184 c-10 -10 -28 6 -28 24 0 15 1 15 17 -1 9 -9 14 -19 11 -23z m-2807
-87 c-8 -8 -11 -1 -11 24 0 46 14 60 18 19 2 -18 -1 -37 -7 -43z m2829 38 c0
-19 -4 -35 -10 -35 -5 0 -10 16 -10 35 0 19 5 35 10 35 6 0 10 -16 10 -35z
m-2073 -31 c-3 -3 -12 -4 -19 -1 -8 3 -5 6 6 6 11 1 17 -2 13 -5z m-230 -40
c-3 -3 -12 -4 -19 -1 -8 3 -5 6 6 6 11 1 17 -2 13 -5z m-50 -10 c-3 -3 -12 -4
-19 -1 -8 3 -5 6 6 6 11 1 17 -2 13 -5z m903 -45 c19 -6 76 -9 126 -7 l91 3
-29 -29 c-16 -15 -28 -36 -26 -46 2 -9 -3 -25 -11 -34 -8 -10 -17 -44 -19 -76
-4 -57 -3 -59 18 -55 44 8 59 16 65 34 3 9 19 28 36 40 l31 23 -25 -38 c-15
-20 -24 -41 -21 -46 9 -15 47 2 77 34 l28 30 23 -21 c23 -21 42 -29 32 -12 -4
5 3 7 13 4 10 -3 28 0 40 6 17 9 21 9 21 -2 0 -10 -22 -17 -72 -24 -73 -10
-73 -10 -20 -12 29 0 52 -6 52 -12 0 -5 5 -7 10 -4 6 3 10 2 10 -2 0 -9 18
-12 108 -14 l53 -1 -70 -73 c-39 -40 -80 -93 -91 -116 -31 -69 -23 -79 10 -13
16 33 42 71 56 85 25 22 24 21 -5 -20 -43 -61 -65 -139 -56 -202 4 -27 5 -49
3 -49 -1 0 -57 -7 -123 -15 -65 -8 -140 -14 -165 -14 l-45 1 38 8 c48 9 49 10
53 67 4 42 3 45 -7 23 -12 -26 -13 -24 -23 22 -7 29 -44 57 -55 40 -9 -14 -68
-42 -90 -42 -10 0 -40 9 -64 19 -64 28 -80 23 -93 -30 -7 -26 -14 -38 -17 -29
-3 8 -8 22 -11 30 -3 8 -5 -13 -3 -47 l3 -62 -50 5 c-203 20 -223 26 -217 66
0 4 -4 30 -9 59 -9 45 -20 62 -84 130 -67 69 -116 141 -116 168 0 20 40 21 78
2 29 -15 42 -17 51 -8 7 7 11 7 11 0 0 -13 52 -12 63 2 4 6 10 5 16 -4 6 -10
10 -10 16 -1 4 6 13 9 21 6 7 -3 16 -1 19 4 3 5 -5 11 -17 13 -13 2 -3 5 22 6
25 1 40 5 35 9 -6 4 -2 15 12 29 l22 21 26 -20 c14 -11 23 -23 20 -28 -5 -8
55 -23 63 -15 3 2 -8 24 -23 47 -28 43 -28 43 36 -17 35 -33 67 -64 71 -70 4
-5 10 -7 13 -4 9 10 12 159 3 165 -4 3 -5 -3 -2 -13 3 -10 -2 -6 -11 10 -9 15
-13 31 -10 36 11 19 -9 43 -56 67 -27 13 -49 25 -49 27 0 7 160 -5 190 -14z
m-465 -14 c-35 -16 -55 -19 -55 -7 0 16 14 22 49 21 l36 -1 -30 -13z m-866
-367 c49 -117 170 -293 196 -285 5 2 35 -12 65 -31 89 -57 144 -87 135 -72 -6
9 -4 12 6 8 70 -29 67 -24 -34 41 -42 28 -77 52 -77 55 0 10 81 -16 150 -47
41 -19 118 -48 170 -65 100 -32 376 -83 438 -81 22 1 -5 9 -67 20 -181 32
-294 60 -283 71 7 7 64 0 168 -18 152 -27 173 -29 474 -29 281 0 331 2 460 23
450 72 669 185 800 412 58 100 103 170 112 170 4 0 0 -23 -8 -51 -18 -60 -11
-77 11 -28 8 19 22 45 30 59 l16 25 -6 -27 c-11 -55 5 -26 25 45 47 163 47
146 -1 -178 -36 -248 -48 -307 -95 -480 -45 -162 -73 -237 -85 -229 -12 7 -3
60 23 133 10 30 16 52 14 50 -3 -2 -28 -40 -57 -84 -57 -88 -174 -238 -209
-270 -13 -11 6 18 42 65 103 134 212 315 262 435 20 46 14 41 -36 -35 -31 -46
-132 -155 -116 -125 3 6 24 40 47 77 61 101 105 193 140 291 17 49 31 91 31
94 0 11 -102 -152 -105 -167 -1 -8 -8 -14 -14 -13 -14 4 -34 -34 -25 -49 4 -6
3 -8 -3 -5 -13 8 -53 -29 -53 -49 0 -8 5 -12 11 -8 27 16 -26 -58 -91 -128
-126 -136 -316 -278 -432 -322 -28 -11 -50 -27 -54 -38 -9 -29 1 -32 33 -10
15 11 66 44 113 74 47 30 119 82 160 116 41 33 93 76 115 93 l40 33 -30 -33
c-51 -55 -184 -163 -325 -263 -74 -53 -205 -160 -290 -238 -248 -226 -384
-319 -449 -305 -67 14 -217 128 -438 332 -72 66 -202 171 -287 232 -85 61
-179 134 -208 162 -44 41 -36 37 52 -29 124 -94 280 -196 287 -188 14 14 -12
39 -63 62 -31 13 -82 42 -115 64 -67 44 -249 188 -249 196 0 8 13 -1 142 -97
65 -48 147 -104 184 -125 44 -25 105 -76 187 -158 147 -146 365 -328 448 -375
77 -43 102 -38 217 39 109 74 441 374 464 418 12 25 33 41 77 62 34 16 61 31
61 32 0 2 -16 3 -34 3 -60 -2 -131 -63 -399 -342 -102 -106 -239 -208 -293
-219 -68 -13 -185 78 -433 335 -106 111 -190 201 -186 201 3 0 93 -84 198
-188 324 -316 379 -348 492 -283 52 30 141 105 115 96 -9 -3 -26 4 -38 16 -19
17 -21 23 -10 36 9 12 2 10 -28 -5 -81 -41 -160 -37 -292 15 -69 28 -102 61
-102 103 0 15 -9 39 -20 53 -11 14 -21 38 -22 54 -3 40 -15 48 -103 73 -83 23
-263 94 -278 109 -5 5 33 -7 85 -26 95 -36 267 -84 297 -82 11 0 12 2 3 6 -10
4 -10 8 -1 19 17 21 4 29 -76 48 -119 29 -226 66 -328 114 -53 25 -95 47 -93
49 2 3 14 -1 26 -7 12 -6 24 -10 26 -7 3 3 -43 30 -101 61 -272 144 -426 284
-521 472 -23 46 -44 79 -47 72 -3 -7 -5 1 -5 17 1 17 -7 75 -16 130 -25 158
-18 171 18 30 18 -71 48 -165 65 -207z m591 317 c0 -6 -76 -45 -87 -45 -4 1
12 12 37 25 50 27 50 27 50 20z m1770 -43 c0 -8 -72 -52 -85 -52 -4 0 -2 6 4
14 9 11 9 15 -1 20 -7 3 -2 3 11 0 17 -5 21 -3 16 6 -5 9 -4 11 3 6 7 -4 20
-2 29 3 22 13 23 13 23 3z m-1380 -32 c0 -5 -7 -10 -16 -10 -8 0 -12 5 -9 10
3 6 10 10 16 10 5 0 9 -4 9 -10z m790 0 c0 -5 -4 -10 -10 -10 -5 0 -10 5 -10
10 0 6 5 10 10 10 6 0 10 -4 10 -10z m-858 -89 c-9 -2 -18 2 -20 8 -2 6 -8 9
-13 5 -10 -6 -12 29 -2 40 4 3 17 -6 29 -21 19 -24 20 -28 6 -32z m956 27 c3
-17 -27 -28 -73 -27 -22 1 -24 3 -9 6 12 2 30 13 40 24 20 22 37 20 42 -3z
m-869 -4 c-6 -8 -17 -14 -23 -14 -7 0 -21 6 -31 14 -17 12 -14 13 23 13 35 0
40 -2 31 -13z m1311 -8 c0 -6 -93 -37 -97 -32 -2 2 15 11 39 19 47 17 58 19
58 13z m244 -78 c-35 -69 -98 -149 -148 -187 -135 -104 -300 -164 -561 -207
-150 -24 -201 -27 -440 -29 l-270 -3 255 8 c306 9 424 24 632 76 245 61 439
188 519 340 13 23 25 41 27 39 2 -2 -4 -18 -14 -37z m-554 -42 c0 -2 -8 -10
-17 -17 -16 -13 -17 -12 -4 4 13 16 21 21 21 13z m-81 -48 c-13 -18 -40 -52
-61 -75 -21 -24 -38 -48 -38 -54 0 -7 -3 -10 -6 -7 -11 11 25 78 67 122 48 53
71 61 38 14z m-1864 -270 c26 -51 51 -97 56 -103 12 -13 11 -28 -1 -20 -7 4
-9 -2 -4 -19 10 -40 -1 -31 -40 31 -20 32 -36 53 -36 47 0 -36 150 -287 292
-489 l49 -70 -47 50 c-59 63 -173 215 -209 278 -15 26 -29 46 -31 44 -5 -4 57
-160 86 -217 12 -25 35 -61 50 -80 49 -64 43 -66 -14 -5 -79 85 -125 185 -180
395 -55 210 -73 294 -81 380 l-6 65 35 -97 c19 -53 55 -139 81 -190z m2310
262 c-49 -54 -254 -160 -310 -160 -11 0 17 16 63 35 88 36 152 70 216 117 46
33 56 36 31 8z m-1785 -117 c52 -24 106 -43 120 -44 17 -1 20 -3 7 -6 -42 -11
-268 93 -322 148 -11 12 7 4 40 -17 33 -21 103 -57 155 -81z m1227 -100 c-2
-16 -4 -3 -4 27 0 30 2 43 4 28 2 -16 2 -40 0 -55z m-694 -100 c-13 -2 -33 -2
-45 0 -13 2 -3 4 22 4 25 0 35 -2 23 -4z m1467 3 c0 -2 -7 -7 -16 -10 -8 -3
-12 -2 -9 4 6 10 25 14 25 6z m-695 -25 c-12 -12 -190 -31 -283 -31 -82 0 -73
12 21 26 91 14 275 17 262 5z m850 -161 c3 -5 1 -10 -4 -10 -6 0 -11 5 -11 10
0 6 2 10 4 10 3 0 8 -4 11 -10z m45 -24 c0 -2 -7 -7 -16 -10 -8 -3 -12 -2 -9
4 6 10 25 14 25 6z m232 -53 c26 -13 58 -59 58 -83 0 -6 -12 2 -26 20 -27 32
-73 60 -96 60 -7 -1 -2 -7 12 -15 28 -16 19 -21 -10 -5 -10 5 -43 14 -72 18
l-53 9 45 10 c50 12 101 7 142 -14z m-3137 7 c14 -6 -2 -9 -50 -9 -38 -1 -81
-7 -94 -14 -34 -17 -63 -59 -71 -104 l-8 -38 -1 43 c-1 53 20 97 57 116 29 17
134 20 167 6z m-12 -27 c-13 -2 -35 -2 -50 0 -16 2 -5 4 22 4 28 0 40 -2 28
-4z m3004 1 c-3 -3 -12 -4 -19 -1 -8 3 -5 6 6 6 11 1 17 -2 13 -5z m-270 -108
c22 -19 28 -32 27 -63 -1 -21 -8 -52 -17 -68 -27 -53 -105 -153 -129 -166 -19
-10 -21 -10 -12 2 116 148 144 192 144 225 0 42 -40 89 -71 81 -10 -3 -17 -1
-13 4 10 16 42 9 71 -15z m-2561 -21 c-22 -7 -59 -28 -83 -49 -24 -21 -48 -36
-53 -34 -13 4 81 75 123 93 18 7 36 10 42 7 5 -4 -8 -11 -29 -17z m-416 0 c0
-8 -7 -15 -16 -15 -14 0 -14 3 -4 15 7 8 14 15 16 15 2 0 4 -7 4 -15z m3504
-7 c8 -13 17 -34 21 -48 7 -22 6 -23 -9 -11 -9 7 -16 22 -16 33 0 17 -3 18
-15 8 -13 -11 -15 -8 -15 14 0 32 15 34 34 4z m-3543 -65 c-9 -16 -10 -16 -11
-1 0 9 3 25 7 35 7 16 8 17 11 1 2 -10 -1 -25 -7 -35z m399 23 c0 -2 -8 -10
-17 -17 -16 -13 -17 -12 -4 4 13 16 21 21 21 13z m115 -6 c8 -13 -5 -13 -25 0
-13 8 -13 10 2 10 9 0 20 -4 23 -10z m60 -58 c-6 -7 -35 18 -35 31 0 5 9 2 20
-8 11 -10 18 -20 15 -23z m2975 28 c0 -5 -2 -10 -4 -10 -3 0 -8 5 -11 10 -3 6
-1 10 4 10 6 0 11 -4 11 -10z m-3520 -35 c-7 -9 -15 -13 -19 -10 -3 3 1 10 9
15 21 14 24 12 10 -5z m467 -7 c27 -30 43 -62 43 -85 -1 -10 -7 -1 -14 20 -18
50 -42 75 -75 80 l-26 4 26 2 c15 0 34 -8 46 -21z m2731 -66 c-124 -130 -199
-256 -235 -394 -10 -37 -22 -67 -28 -65 -19 6 -17 57 6 125 42 130 117 249
199 319 33 28 122 91 129 92 2 1 -30 -34 -71 -77z m-3177 41 c-8 -15 -10 -15
-11 -2 0 17 10 32 18 25 2 -3 -1 -13 -7 -23z m289 -143 c50 -75 80 -135 80
-162 0 -16 -12 -1 -38 47 -21 39 -57 97 -80 129 -23 33 -42 64 -42 69 0 17 41
-25 80 -83z m2943 68 c-4 -7 -35 -53 -68 -103 -57 -84 -118 -212 -146 -305 -7
-22 -16 -40 -21 -40 -13 0 -10 22 12 94 12 37 18 72 14 79 -4 6 -4 9 0 5 4 -3
24 24 43 62 36 70 148 220 165 220 5 0 6 -6 1 -12z m-2672 -41 c-8 -8 -11 -7
-11 4 0 9 3 19 7 23 4 4 9 2 11 -4 3 -7 -1 -17 -7 -23z m649 -163 c96 -97 162
-168 145 -156 -40 27 -337 332 -324 332 2 0 83 -79 179 -176z m-723 114 c-3
-8 -6 -5 -6 6 -1 11 2 17 5 13 3 -3 4 -12 1 -19z m1758 -137 c-78 -76 -150
-143 -162 -150 -12 -6 47 56 130 139 84 82 157 149 162 149 6 0 -53 -62 -130
-138z m-1815 30 c-5 -11 -15 -23 -21 -27 -6 -3 -3 5 6 20 20 30 30 35 15 7z
m-46 -73 c-16 -31 -16 -86 1 -133 7 -20 6 -20 -9 -1 -20 25 -21 98 -1 136 9
17 18 30 21 30 2 0 -3 -14 -12 -32z m-99 2 c-3 -5 -11 -10 -16 -10 -6 0 -7 5
-4 10 3 6 11 10 16 10 6 0 7 -4 4 -10z m2905 -5 c7 -8 9 -15 5 -15 -4 0 -1 -7
6 -17 13 -15 12 -15 -11 -3 -16 8 -20 15 -12 18 10 3 8 8 -5 18 -10 7 -13 14
-7 14 6 0 17 -7 24 -15z m-2915 -25 c-3 -5 -11 -10 -16 -10 -6 0 -7 5 -4 10 3
6 11 10 16 10 6 0 7 -4 4 -10z m4 -23 c-2 -1 -13 -9 -24 -17 -19 -14 -19 -14
-6 3 7 9 18 17 24 17 6 0 8 -1 6 -3z m196 -56 c7 -28 9 -51 5 -51 -10 0 -30
64 -30 94 0 30 10 13 25 -43z m12 37 c-3 -8 -6 -5 -6 6 -1 11 2 17 5 13 3 -3
4 -12 1 -19z m2713 12 c8 -5 12 -11 10 -14 -3 -2 -14 2 -24 10 -22 15 -10 19
14 4z m-2296 -24 c54 -32 136 -142 136 -181 0 -12 -69 68 -75 86 -7 23 -8 23
-21 -4 -10 -18 -39 -38 -88 -60 -108 -50 -132 -53 -221 -22 -20 7 -20 7 0 -9
18 -16 18 -16 -13 -10 -19 4 -32 2 -32 -4 0 -21 113 -31 191 -16 87 16 166 18
229 3 79 -18 107 -37 135 -92 27 -55 35 -107 13 -89 -22 17 -116 32 -204 32
-53 0 -98 6 -121 15 -44 19 -49 19 -33 0 10 -12 6 -13 -27 -9 l-38 4 40 -16
c27 -10 80 -16 165 -19 82 -2 144 -8 179 -20 68 -21 121 -71 121 -111 l-1 -29
-13 30 c-16 37 -42 60 -51 45 -3 -5 -29 -10 -57 -10 -50 0 -51 0 -33 -20 17
-19 17 -19 -16 -10 -59 17 -66 10 -14 -15 46 -23 47 -24 15 -19 -19 4 -57 15
-84 26 -27 10 -51 17 -53 15 -11 -12 74 -47 171 -71 129 -32 161 -47 181 -86
21 -40 19 -78 -7 -130 -27 -53 -62 -70 -49 -23 5 15 12 35 15 44 6 14 -6 17
-89 22 -109 7 -130 1 -162 -48 -18 -27 -30 -34 -60 -37 -36 -3 -42 -9 -98 -94
-68 -101 -163 -220 -222 -276 -52 -51 -86 -62 -124 -43 -34 18 -36 13 -9 -25
33 -46 4 -46 -45 -1 -58 54 -65 52 -18 -5 21 -25 37 -50 35 -56 -1 -6 3 -16 9
-24 11 -13 5 -18 -15 -15 -5 1 -5 -6 -2 -16 8 -21 5 -17 -49 51 -114 141 -369
344 -457 363 -16 3 -28 11 -28 18 0 15 43 52 87 76 30 16 88 109 218 349 77
143 166 293 210 353 24 33 48 49 115 78 47 20 132 57 190 82 58 26 111 46 119
47 8 0 33 -11 55 -24z m1921 -65 c162 -69 182 -81 210 -118 41 -56 159 -256
260 -440 108 -197 140 -244 183 -274 71 -48 91 -79 50 -79 -57 0 -239 -141
-403 -312 -66 -69 -115 -114 -113 -103 2 12 -2 19 -10 17 -13 -2 1 24 47 86
36 49 20 48 -31 -3 -25 -24 -48 -42 -51 -38 -7 7 18 60 42 87 16 18 15 18 -16
2 -64 -33 -91 -24 -170 58 -39 41 -111 135 -159 208 -150 227 -182 258 -286
273 -34 5 -49 13 -53 26 -4 10 -14 19 -23 19 -39 1 -44 17 -10 33 18 9 27 17
20 17 -28 0 -92 -42 -107 -70 -23 -44 -18 -74 20 -124 39 -52 23 -66 -18 -16
-49 58 -47 141 3 184 21 17 64 32 147 52 124 28 161 42 183 69 10 12 -2 10
-55 -9 -85 -33 -93 -32 -30 2 l50 27 -55 2 c-89 4 -160 14 -160 22 0 4 10 13
23 19 12 6 17 11 11 11 -20 2 -66 -41 -80 -73 -8 -20 -13 -24 -14 -13 0 30 29
76 58 91 53 27 172 47 270 45 74 -2 105 2 132 14 l35 17 -34 -5 c-26 -4 -32
-2 -27 10 7 19 5 19 -30 0 -16 -8 -47 -14 -69 -13 l-40 1 38 4 c20 2 37 8 37
13 0 11 -140 24 -196 17 -24 -2 -47 -1 -50 4 -11 18 -21 8 -34 -33 -16 -54
-25 -34 -10 23 15 54 55 94 111 109 53 15 208 18 305 6 39 -5 89 -5 110 -1 36
7 37 8 14 15 -14 5 -19 8 -12 9 6 1 12 5 12 10 0 5 -20 3 -45 -4 -56 -17 -122
-3 -210 47 -48 27 -61 40 -65 63 -6 30 -6 29 -24 -18 -11 -26 -22 -43 -26 -37
-4 6 -12 0 -19 -16 -17 -37 -25 -23 -11 19 14 45 85 126 125 143 38 16 35 17
250 -75z m-2558 52 c-9 -9 -20 -13 -24 -9 -4 4 -1 11 7 16 25 16 35 11 17 -7z
m2939 3 c10 -8 17 -17 14 -19 -3 -3 -16 3 -29 14 -27 22 -15 26 15 5z m-2709
-18 c-3 -8 -6 -5 -6 6 -1 11 2 17 5 13 3 -3 4 -12 1 -19z m-232 -18 c-10 -11
-21 -17 -24 -14 -3 3 3 12 13 20 28 20 32 17 11 -6z m2950 -11 c13 -20 0 -16
-25 8 -23 23 -23 24 -3 14 12 -6 25 -16 28 -22z m-2945 -24 c-13 -14 -26 -22
-29 -19 -3 3 5 14 18 25 33 27 39 24 11 -6z m13 -29 c-10 -13 -20 -22 -22 -20
-4 4 29 44 36 44 2 0 -4 -11 -14 -24z m27 -21 c-13 -14 -26 -22 -29 -19 -3 3
5 14 18 25 33 27 39 24 11 -6z m1107 9 c-3 -3 -12 -4 -19 -1 -8 3 -5 6 6 6 11
1 17 -2 13 -5z m-1097 -39 c-7 -9 -15 -13 -18 -10 -3 2 1 11 8 20 7 9 15 13
18 10 3 -2 -1 -11 -8 -20z m20 -16 c-7 -11 -14 -18 -17 -15 -3 3 0 12 7 21 18
21 23 19 10 -6z m1060 -54 c41 -8 111 -14 155 -14 71 -1 123 3 302 23 41 4 38
3 -17 -10 -36 -8 -137 -17 -226 -21 -132 -5 -175 -3 -238 11 -100 23 -110 19
-102 -40 3 -25 11 -53 16 -62 9 -13 10 -11 5 13 -10 56 1 60 112 45 134 -19
306 -15 505 10 93 11 175 23 184 27 15 5 15 4 -1 -20 -9 -14 -32 -38 -51 -52
-20 -15 -33 -29 -31 -32 8 -7 48 16 78 43 19 19 26 21 26 9 0 -21 -104 -118
-155 -144 -94 -48 -391 -82 -517 -59 -35 7 -37 6 -15 -4 46 -22 277 -14 449
16 84 15 156 25 158 22 2 -2 -19 -11 -49 -20 -104 -30 -235 -48 -388 -53 -148
-4 -157 -4 -199 19 -75 39 -126 125 -146 244 -8 49 14 80 49 69 12 -3 55 -12
96 -20z m537 19 c-3 -3 -12 -4 -19 -1 -8 3 -5 6 6 6 11 1 17 -2 13 -5z m-1700
-65 c-51 -30 -233 -90 -255 -84 -13 3 -22 8 -19 11 8 8 258 83 277 83 12 0 11
-2 -3 -10z m3103 -24 c145 -42 163 -50 131 -60 -21 -6 -189 47 -249 80 -42 23
-13 18 118 -20z m230 -74 c0 -4 55 -27 123 -51 113 -39 242 -94 277 -119 12
-8 10 -15 -13 -39 -16 -17 -57 -88 -93 -158 -35 -71 -64 -127 -64 -124 0 14
62 165 95 229 19 40 33 76 30 81 -9 15 -317 132 -361 137 -37 5 -46 1 -82 -31
-22 -21 -58 -70 -79 -111 -20 -41 -39 -73 -40 -71 -5 5 46 128 71 171 32 54
80 95 112 95 13 0 24 -4 24 -9z m-3612 -16 c35 -25 77 -94 111 -184 18 -46 30
-85 28 -87 -2 -2 -21 30 -42 71 -43 85 -106 162 -139 171 -23 5 -164 -41 -308
-101 l-86 -36 48 -102 c68 -145 71 -171 5 -47 -30 57 -65 114 -76 126 -12 13
-19 26 -16 31 14 22 386 170 432 172 11 1 30 -6 43 -14z m1535 -366 c75 -70
76 -67 11 63 -29 58 -32 69 -15 54 22 -20 30 -9 9 13 -11 11 -7 12 22 6 65
-12 69 -16 90 -73 34 -91 50 -162 49 -222 l-1 -55 -20 58 c-21 62 -34 74 -18
16 16 -55 13 -325 -4 -358 -16 -29 -81 -92 -115 -111 -19 -9 -22 -7 -32 17 -6
15 -7 39 -4 53 4 14 9 51 12 83 5 56 4 59 -36 102 -23 25 -41 47 -41 49 0 3
-17 65 -38 139 -24 83 -37 147 -34 166 l4 32 31 -28 30 -28 -20 30 c-37 54
-79 150 -75 169 3 16 15 7 66 -46 33 -36 92 -94 129 -129z m2225 154 c37 -20
83 -47 102 -60 33 -23 34 -24 7 -17 -43 10 -84 -13 -107 -60 -11 -23 -20 -48
-20 -56 0 -7 -18 14 -40 46 -22 33 -40 62 -40 67 0 4 20 22 45 39 l45 32 -38
22 c-59 37 -27 28 46 -13z m-3936 9 l-33 -18 45 -33 46 -32 66 47 c50 35 70
45 82 38 20 -13 16 -28 -11 -35 -12 -4 -35 -12 -51 -18 l-30 -12 55 -26 54
-25 -34 -15 c-29 -12 -35 -12 -51 2 -9 8 -31 20 -49 25 -37 10 -55 -3 -82 -64
l-17 -39 -21 41 c-30 58 -68 85 -111 78 l-34 -5 34 21 c61 38 155 88 165 87 6
0 -5 -8 -23 -17z m3792 -57 l30 -24 -42 -45 c-23 -25 -42 -50 -42 -56 0 -6 -4
-8 -10 -5 -23 14 1 156 27 155 4 -1 21 -12 37 -25z m-1437 -37 c-3 -7 -5 -2
-5 12 0 14 2 19 5 13 2 -7 2 -19 0 -25z m308 -52 c19 -8 35 -19 35 -23 0 -4
14 -23 31 -40 20 -22 25 -33 15 -33 -17 0 -41 22 -57 51 -15 29 -54 40 -110
33 l-49 -7 51 -23 c28 -13 60 -24 70 -24 14 0 19 -7 19 -27 0 -41 11 -52 81
-87 59 -29 67 -37 123 -128 92 -147 128 -185 210 -224 73 -34 64 -46 -15 -19
-57 20 -133 86 -215 189 -36 45 -88 97 -117 116 -44 30 -55 44 -72 92 -19 56
-20 57 -95 91 -41 19 -87 38 -102 41 -53 12 -28 25 55 29 45 1 88 4 95 5 7 1
28 -5 47 -12z m-1256 -30 c-2 -2 -15 -9 -29 -15 -24 -11 -24 -11 -6 3 16 13
49 24 35 12z m-79 -42 c0 -3 -16 -12 -35 -19 -27 -12 -36 -23 -44 -53 -12 -41
-38 -71 -87 -95 -17 -9 -58 -51 -91 -94 -67 -86 -169 -193 -185 -193 -6 0 13
25 41 56 28 30 83 96 123 145 46 59 86 98 112 111 51 26 63 42 72 95 6 39 9
42 29 37 13 -3 32 -1 42 5 21 12 23 13 23 5z m310 -319 c20 -21 31 -43 34 -75
4 -30 3 -36 -2 -20 -8 24 -8 24 -14 4 -7 -26 -42 -50 -83 -58 -24 -5 -22 -3 9
9 55 21 66 33 66 71 0 34 -14 53 -24 32 -5 -10 -7 -10 -12 -1 -4 9 -11 10 -23
4 -35 -19 -519 -126 -529 -117 -2 2 95 27 215 56 352 84 330 69 290 193 -37
113 -33 120 8 17 20 -46 48 -98 65 -115z m688 72 c-34 -104 -60 -89 317 -182
122 -30 161 -42 120 -38 -96 9 -408 82 -435 102 -33 24 -36 58 -9 131 29 81
34 71 7 -13z m-2174 31 c-17 -30 -101 -136 -136 -173 -21 -22 -48 -59 -60 -82
-26 -48 -38 -54 -38 -19 0 14 20 46 53 82 28 33 76 92 105 132 30 39 60 72 69
72 9 0 11 -5 7 -12z m3667 -60 c29 -40 76 -101 106 -136 30 -36 53 -73 52 -85
0 -21 -1 -21 -12 -3 -7 10 -34 45 -62 78 -81 95 -165 202 -165 211 0 4 6 7 14
7 8 0 38 -33 67 -72z m-1491 -187 l35 -11 -34 5 c-40 6 -81 30 -81 47 0 6 10
2 23 -9 12 -12 38 -26 57 -32z m-835 -27 c-27 -7 -57 -13 -65 -13 -21 1 70 27
95 27 11 0 -2 -6 -30 -14z m1114 -33 c119 -28 230 -52 246 -54 27 -4 27 -4 -7
-6 -36 -1 -224 38 -393 83 -152 41 -74 29 154 -23z m-1599 -92 l35 -18 -28 -1
c-46 0 -65 17 -82 72 -23 78 -17 90 13 24 20 -42 37 -63 62 -77z m397 105 c-3
-3 -12 -4 -19 -1 -8 3 -5 6 6 6 11 1 17 -2 13 -5z m-82 -20 c-27 -7 -57 -13
-65 -13 -21 1 70 27 95 27 11 0 -2 -6 -30 -14z m1172 -10 c-3 -3 -12 -4 -19
-1 -8 3 -5 6 6 6 11 1 17 -2 13 -5z m-1277 -14 c-14 -4 -34 -8 -45 -8 -16 0
-15 2 5 8 14 4 34 8 45 8 16 0 15 -2 -5 -8z m1350 0 c20 -6 21 -8 5 -8 -11 0
-31 4 -45 8 -20 6 -21 8 -5 8 11 0 31 -4 45 -8z m-1423 -16 c-3 -3 -12 -4 -19
-1 -8 3 -5 6 6 6 11 1 17 -2 13 -5z m1480 0 c-3 -3 -12 -4 -19 -1 -8 3 -5 6 6
6 11 1 17 -2 13 -5z m-1520 -10 c-3 -3 -12 -4 -19 -1 -8 3 -5 6 6 6 11 1 17
-2 13 -5z m2880 -49 c0 -8 -4 -12 -9 -9 -4 3 -8 9 -8 15 0 5 4 9 8 9 5 0 9 -7
9 -15z m-2970 -97 c-3 -8 -6 -5 -6 6 -1 11 2 17 5 13 3 -3 4 -12 1 -19z"/>
<path d="M1655 4346 c-100 -47 -189 -103 -316 -201 -61 -47 -119 -85 -130 -85
-42 0 -49 -123 -10 -171 l19 -23 72 53 c103 75 223 141 344 191 87 36 104 46
94 57 -6 8 -7 13 -2 11 10 -3 14 4 14 28 0 9 -5 12 -12 8 -8 -5 -8 -3 -2 7 9
14 13 160 4 158 -3 0 -36 -15 -75 -33z"/>
<path d="M3590 4046 c0 -3 9 -10 20 -16 11 -6 20 -8 20 -6 0 3 -9 10 -20 16
-11 6 -20 8 -20 6z"/>
<path d="M2220 4169 c-183 -21 -406 -76 -584 -145 -92 -36 -298 -147 -348
-187 -25 -21 -27 -25 -17 -59 l10 -37 77 50 c104 68 237 130 390 183 185 63
323 92 575 121 l57 6 0 40 0 39 -42 -1 c-24 -1 -77 -5 -118 -10z"/>
<path d="M3210 4081 c0 -17 0 -34 0 -38 -1 -5 57 -27 127 -49 143 -46 323
-130 425 -197 37 -25 70 -42 73 -39 3 3 5 21 5 41 0 35 -4 38 -97 97 -161 100
-276 150 -433 189 -36 9 -73 18 -82 21 -14 4 -18 -1 -18 -25z"/>
<path d="M3196 3928 c-14 -169 -34 -483 -31 -486 3 -3 191 -42 201 -42 1 0 5
37 9 83 5 45 10 77 12 70 3 -9 12 -9 30 -2 l25 9 -3 -86 -4 -87 125 -33 c69
-17 138 -37 154 -43 16 -7 31 -10 33 -8 2 3 19 89 38 193 19 104 37 199 40
211 7 30 -52 73 -205 152 -129 66 -223 104 -314 126 -34 8 -71 17 -82 21 -20
5 -22 1 -28 -78z m251 -325 c-3 -10 -5 -4 -5 12 0 17 2 24 5 18 2 -7 2 -21 0
-30z m-180 -135 c-3 -8 -6 -5 -6 6 -1 11 2 17 5 13 3 -3 4 -12 1 -19z"/>
<path d="M2368 3473 c7 -3 16 -2 19 1 4 3 -2 6 -13 5 -11 0 -14 -3 -6 -6z"/>
<path d="M2630 3440 c0 -5 7 -10 15 -10 8 0 15 5 15 10 0 6 -7 10 -15 10 -8 0
-15 -4 -15 -10z"/>
<path d="M2203 3433 c15 -2 37 -2 50 0 12 2 0 4 -28 4 -27 0 -38 -2 -22 -4z"/>
<path d="M2328 3433 c12 -2 32 -2 45 0 12 2 2 4 -23 4 -25 0 -35 -2 -22 -4z"/>
<path d="M2738 3433 c28 -2 76 -2 105 0 28 2 5 3 -53 3 -58 0 -81 -1 -52 -3z"/>
<path d="M2078 3423 c12 -2 32 -2 45 0 12 2 2 4 -23 4 -25 0 -35 -2 -22 -4z"/>
<path d="M3278 3393 c6 -2 18 -2 25 0 6 3 1 5 -13 5 -14 0 -19 -2 -12 -5z"/>
<path d="M3448 3363 c7 -3 16 -2 19 1 4 3 -2 6 -13 5 -11 0 -14 -3 -6 -6z"/>
<path d="M3528 3343 c7 -3 16 -2 19 1 4 3 -2 6 -13 5 -11 0 -14 -3 -6 -6z"/>
<path d="M2643 2955 c0 -22 2 -30 4 -17 2 12 2 30 0 40 -3 9 -5 -1 -4 -23z"/>
<path d="M3814 2733 c-23 -31 -24 -34 -5 -18 22 19 46 55 38 55 -3 0 -17 -17
-33 -37z"/>
<path d="M1845 2396 c-18 -13 -18 -15 11 -40 36 -31 110 -61 221 -86 141 -33
183 -35 230 -11 23 11 44 25 47 30 14 22 -29 39 -143 56 -66 10 -119 21 -116
24 2 4 -13 6 -33 4 -30 -3 -33 -1 -17 7 15 7 9 9 -25 4 -29 -3 -40 -2 -32 4
10 6 3 11 -25 15 -60 10 -98 8 -118 -7z"/>
<path d="M3195 2399 c-16 -5 -109 -23 -205 -39 -239 -41 -255 -50 -174 -98 33
-19 48 -22 98 -17 90 10 241 51 298 82 48 26 78 56 68 67 -12 11 -57 14 -85 5z"/>
<path d="M3481 2345 c-30 -19 -101 -56 -158 -82 -57 -26 -103 -51 -103 -55 0
-7 111 41 208 90 46 23 127 82 112 81 -3 0 -30 -16 -59 -34z"/>
<path d="M2890 1843 l-55 -58 58 55 c53 50 62 60 54 60 -1 0 -27 -26 -57 -57z"/>
<path d="M1196 1188 c-32 -36 -88 -128 -180 -290 -15 -26 -42 -83 -61 -127
-20 -48 -47 -92 -66 -109 l-32 -28 44 -34 c24 -18 82 -70 129 -115 135 -130
161 -135 226 -45 20 28 42 49 49 46 8 -3 11 2 8 13 -6 22 84 151 183 264 118
134 144 168 144 188 0 10 -14 33 -31 51 -21 23 -27 26 -20 11 24 -48 14 -78
-52 -149 -85 -93 -189 -222 -265 -332 -35 -50 -70 -93 -79 -96 -25 -10 -77 30
-152 116 -83 95 -86 110 -45 223 13 39 28 84 33 100 8 28 79 165 86 165 2 0
-21 -56 -51 -124 -30 -69 -61 -152 -70 -186 -18 -73 -18 -73 83 -181 83 -87
97 -95 129 -74 13 8 24 21 24 27 0 6 -9 3 -19 -6 -29 -26 -52 -14 -126 70 -65
72 -67 77 -70 132 -2 41 -1 51 6 37 7 -16 8 -14 4 9 -4 16 0 37 8 50 7 11 26
59 41 106 16 47 37 101 46 120 9 19 15 41 12 49 -3 9 0 11 8 6 8 -5 11 -4 7 2
-7 11 41 93 76 131 11 12 18 22 15 22 -4 0 -23 -19 -42 -42z m418 -266 c-10
-15 -38 -49 -64 -77 -88 -96 -148 -171 -244 -306 -53 -75 -103 -139 -111 -143
-31 -11 -72 18 -167 117 -96 100 -109 124 -88 157 7 11 10 8 10 -16 0 -24 17
-49 87 -123 90 -97 134 -126 165 -110 9 5 59 69 111 142 52 72 130 172 173
221 102 115 134 156 135 175 0 11 2 12 6 3 3 -7 -3 -25 -13 -40z m-607 -244
c-3 -8 -6 -5 -6 6 -1 11 2 17 5 13 3 -3 4 -12 1 -19z"/>
<path d="M1798 1213 c6 -2 18 -2 25 0 6 3 1 5 -13 5 -14 0 -19 -2 -12 -5z"/>
<path d="M870 574 c41 -25 89 -58 105 -72 18 -16 14 -9 -10 17 -47 51 -120
101 -149 101 -12 0 9 -18 54 -46z"/>
<path d="M1582 569 c-13 -16 -27 -27 -31 -24 -5 2 -54 -38 -111 -91 l-103 -95
-26 23 c-21 19 -23 19 -11 3 32 -46 55 -65 75 -65 32 0 166 146 214 234 27 47
24 53 -7 15z"/>
<path d="M1260 206 c0 -2 8 -10 18 -17 15 -13 16 -12 3 4 -13 16 -21 21 -21
13z"/>
<path d="M3520 1380 c8 -5 20 -10 25 -10 6 0 3 5 -5 10 -8 5 -19 10 -25 10 -5
0 -3 -5 5 -10z"/>
<path d="M3954 1136 c14 -21 26 -45 26 -52 0 -8 5 -14 11 -14 5 0 7 -5 3 -12
-4 -6 -3 -8 3 -5 7 4 11 -2 11 -16 0 -12 22 -85 51 -162 68 -189 69 -191 33
-240 -42 -59 -132 -155 -145 -155 -6 0 -19 7 -29 17 -20 18 -25 4 -6 -15 32
-32 76 -5 162 100 64 77 69 98 39 177 -13 36 -21 71 -19 77 3 7 2 14 -2 16 -8
3 -83 180 -79 184 2 2 55 -100 102 -196 35 -70 87 -200 83 -209 -1 -6 -52 -60
-112 -121 -131 -132 -137 -134 -206 -48 -55 68 -132 178 -126 178 3 0 32 -37
65 -83 77 -106 107 -137 133 -137 23 0 181 149 204 192 8 15 14 40 13 55 -1
28 -1 28 -9 -4 -9 -40 -162 -211 -197 -219 -32 -9 -57 15 -154 151 -43 61
-124 162 -179 225 -84 96 -100 120 -100 148 0 18 5 43 11 55 12 22 12 22 -10
3 -12 -11 -19 -26 -16 -33 2 -8 0 -11 -5 -8 -14 9 -23 -20 -16 -48 3 -12 45
-67 93 -122 73 -84 140 -171 251 -324 105 -146 110 -146 248 -6 150 152 143
130 85 265 -79 187 -183 374 -226 410 -10 8 -6 -3 9 -24z m-358 -296 c72 -82
139 -167 108 -135 -30 30 -157 175 -182 209 -12 16 -22 36 -22 45 0 9 7 3 15
-14 8 -16 45 -64 81 -105z m145 -177 c13 -16 12 -17 -3 -4 -17 13 -22 21 -14
21 2 0 10 -8 17 -17z"/>
<path d="M3370 845 c13 -14 26 -25 28 -25 3 0 -5 11 -18 25 -13 14 -26 25 -28
25 -3 0 5 -11 18 -25z"/>
<path d="M4100 835 c0 -5 5 -17 10 -25 5 -8 10 -10 10 -5 0 6 -5 17 -10 25 -5
8 -10 11 -10 5z"/>
<path d="M3425 773 c15 -24 30 -43 32 -43 7 0 -31 61 -46 73 -8 7 -2 -7 14
-30z"/>
<path d="M3495 616 c10 -14 19 -26 22 -26 7 0 -17 39 -28 46 -6 3 -3 -5 6 -20z"/>
<path d="M3526 567 c28 -48 102 -142 152 -191 59 -58 61 -59 92 -46 17 7 39
25 50 40 28 39 24 51 -5 16 -28 -35 -16 -41 -151 82 -86 79 -154 127 -138 99z"/>
<path d="M4168 535 c-32 -25 -58 -48 -58 -51 0 -3 27 16 60 41 52 40 68 55 58
55 -2 0 -29 -20 -60 -45z"/>
<path d="M3796 475 c-11 -8 -15 -15 -9 -15 6 0 16 7 23 15 16 19 11 19 -14 0z"/>
<path d="M2790 1235 c-14 -8 -20 -14 -14 -15 5 0 19 7 30 15 24 18 16 19 -16
0z"/>
<path d="M5054 4855 c-34 -55 -126 -203 -206 -330 -227 -361 -541 -882 -652
-1081 l-66 -119 0 58 c0 56 -8 68 -36 49 -7 -4 -13 -71 -17 -177 -4 -93 -9
-199 -13 -235 l-5 -65 103 158 c241 371 539 817 544 817 4 0 0 -10 -8 -22 -8
-13 -94 -151 -190 -308 -186 -303 -267 -432 -393 -625 -60 -93 -79 -130 -83
-165 -3 -28 -1 -41 5 -35 5 6 75 84 155 175 208 236 203 230 163 175 -88 -123
-156 -216 -232 -319 -46 -61 -83 -115 -83 -120 0 -5 23 21 51 58 72 95 74 74
2 -26 -85 -119 -93 -133 -109 -196 -15 -57 -12 -88 6 -77 8 5 8 11 1 19 -8 9
-4 19 13 35 16 15 26 19 31 12 4 -7 1 -10 -7 -9 -7 2 -12 -3 -10 -10 1 -8 -2
-11 -10 -6 -10 5 -10 4 -1 -6 10 -11 16 -10 33 5 11 10 17 22 14 27 -3 4 -1 7
4 6 5 -2 71 75 147 170 75 94 138 172 140 172 2 0 -55 -81 -127 -179 -71 -99
-130 -183 -130 -188 0 -4 -7 -16 -16 -26 -21 -23 -25 -50 -7 -43 9 3 12 0 9
-8 -3 -8 0 -17 5 -21 6 -3 8 -11 5 -17 -4 -7 -2 -8 4 -4 6 4 9 13 6 20 -3 7 3
19 13 27 17 13 17 13 4 -6 -8 -11 21 18 66 65 209 221 253 263 183 175 -17
-21 -28 -40 -26 -43 3 -2 26 13 51 33 55 46 68 41 25 -9 -18 -20 -28 -36 -24
-35 12 1 610 655 700 765 l34 41 -2 774 -3 774 -61 -100z m-341 -1266 c-10
-17 -33 -47 -51 -67 l-33 -37 32 50 c50 78 90 120 52 54z m-399 -636 c-55 -75
-64 -86 -64 -79 0 9 81 116 87 116 3 0 -7 -17 -23 -37z"/>
<path d="M3878 4898 c-41 -34 -65 -108 -35 -108 28 0 83 80 73 106 -7 17 -17
18 -38 2z"/>
<path d="M0 4110 l0 -783 54 -66 c30 -36 127 -151 217 -256 89 -104 247 -293
352 -418 141 -169 192 -225 202 -217 6 5 15 7 19 3 11 -11 66 -12 60 -1 -4 5
4 8 17 6 19 -2 24 2 24 19 0 12 6 28 13 35 11 11 13 11 10 -1 -2 -7 7 -15 20
-17 12 -2 22 1 22 7 0 8 4 8 14 0 10 -8 16 -9 21 -1 3 6 10 8 15 5 5 -3 11 -1
14 4 4 5 1 13 -5 17 -7 4 -9 3 -5 -4 7 -12 -20 -10 -31 3 -4 4 -3 5 4 1 6 -3
14 -2 18 4 4 6 10 8 15 5 5 -3 12 0 16 6 4 8 9 7 15 -2 5 -8 9 -9 9 -3 0 11
-95 149 -190 274 -31 41 -66 91 -79 110 l-23 35 24 -26 c13 -14 83 -101 157
-193 73 -91 136 -166 138 -166 6 0 -10 23 -40 57 -11 12 -16 27 -12 34 6 8 4
10 -6 4 -11 -6 -12 -5 -2 5 10 11 15 11 29 -1 18 -14 -32 58 -115 166 -26 33
-64 87 -85 120 -54 83 -113 160 -231 300 -163 194 -160 190 -126 224 29 29 69
15 126 -45 51 -53 78 -96 224 -354 76 -135 189 -306 196 -298 2 2 -5 59 -15
128 -21 143 -37 313 -46 481 -5 99 -8 117 -25 127 -18 12 -19 9 -19 -55 l-1
-68 -22 30 c-21 28 -421 666 -677 1080 -68 110 -161 260 -207 334 l-83 135 0
-784z m357 -160 c76 -108 83 -120 59 -101 -15 12 -67 89 -124 181 -29 47 4 5
65 -80z m172 -265 c38 -60 94 -153 124 -205 31 -52 66 -111 78 -130 27 -44 16
-31 -101 119 -123 158 -215 301 -195 301 18 0 19 13 4 43 -10 22 -10 22 6 2 9
-11 47 -69 84 -130z m-374 -30 c47 -64 111 -145 142 -182 94 -111 278 -366
443 -615 87 -131 157 -238 155 -238 -11 0 -440 527 -598 735 -131 171 -161
216 -80 120 149 -177 151 -164 5 43 -166 237 -175 252 -157 252 3 0 44 -52 90
-115z m95 -517 c0 -19 -28 -6 -38 17 -18 38 -15 41 13 15 14 -13 25 -27 25
-32z m351 -415 c8 -9 28 -24 44 -35 21 -12 25 -18 12 -18 -19 0 -99 69 -81 70
6 0 18 -7 25 -17z m454 -222 c3 -5 2 -12 -3 -15 -5 -3 -9 1 -9 9 0 17 3 19 12
6z"/>
<path d="M330 3398 c18 -26 46 -62 62 -80 l30 -33 -32 45 c-17 25 -44 61 -61
80 l-31 35 32 -47z"/>
<path d="M1140 4764 c0 -8 5 -12 10 -9 6 4 8 11 5 16 -9 14 -15 11 -15 -7z"/>
<path d="M3869 4611 c-17 -18 -28 -35 -25 -38 4 -4 21 7 38 25 18 17 29 34 25
38 -3 3 -20 -8 -38 -25z"/>
<path d="M4024 4487 c-16 -17 -19 -24 -8 -14 17 14 23 15 26 5 3 -9 9 -6 16 9
19 35 -2 35 -34 0z"/>
<path d="M996 4482 c-4 -4 -13 -7 -19 -7 -6 0 -12 -12 -12 -28 -2 -25 0 -26
15 -12 9 8 20 13 23 10 4 -3 5 -2 2 2 -3 3 0 12 6 19 11 13 -3 29 -15 16z m14
-5 c0 -2 -8 -11 -18 -20 -15 -14 -19 -15 -19 -2 0 8 4 12 8 9 4 -2 10 0 14 6
6 10 15 14 15 7z"/>
<path d="M1011 4381 c-14 -14 -18 -29 -15 -47 6 -34 52 -99 80 -115 28 -14 61
-4 69 22 10 30 -41 126 -75 144 -36 19 -36 19 -59 -4z"/>
<path d="M849 4358 c4 -12 13 -24 20 -26 9 -3 9 2 0 22 -15 32 -32 35 -20 4z"/>
<path d="M4360 4340 c-6 -11 -8 -20 -6 -20 3 0 10 9 16 20 6 11 8 20 6 20 -3
0 -10 -9 -16 -20z"/>
<path d="M4098 4204 c-38 -20 -54 -52 -36 -70 11 -12 20 -11 56 7 43 21 53 44
30 67 -15 15 -17 15 -50 -4z"/>
<path d="M4525 4139 c-14 -17 -23 -34 -20 -38 7 -7 55 45 55 60 0 15 -7 11
-35 -22z"/>
<path d="M4322 4115 c-31 -39 -87 -153 -80 -161 15 -14 37 7 77 76 39 69 51
110 32 110 -5 0 -18 -11 -29 -25z"/>
<path d="M4183 3688 c-26 -29 -43 -62 -43 -84 0 -14 8 -10 36 17 20 18 42 46
50 62 13 25 13 27 -4 27 -10 0 -28 -10 -39 -22z"/>
<path d="M4893 3068 c-6 -7 -13 -19 -17 -25 -12 -21 18 -5 32 17 13 22 1 28
-15 8z"/>
<path d="M350 2792 c0 -11 22 -32 32 -32 5 0 4 9 -2 20 -11 20 -30 28 -30 12z"/>
<path d="M4745 2789 c-12 -19 5 -23 22 -6 16 16 16 17 1 17 -9 0 -20 -5 -23
-11z"/>
<path d="M1055 2710 c25 -33 48 -60 51 -60 3 0 -16 27 -41 60 -25 33 -48 60
-51 60 -3 0 16 -27 41 -60z"/>
<path d="M5016 2737 c-32 -32 -35 -53 -6 -37 21 11 45 48 36 57 -2 3 -16 -6
-30 -20z"/>
<path d="M0 2658 l0 -56 217 -209 c120 -114 288 -276 373 -359 176 -170 320
-295 332 -288 4 3 12 14 18 24 9 16 1 26 -52 70 -35 28 -249 236 -475 463
l-413 412 0 -57z"/>
<path d="M5030 2583 c-171 -152 -204 -183 -197 -189 13 -13 287 214 287 238 0
10 -3 18 -7 17 -5 0 -42 -30 -83 -66z"/>
<path d="M4556 2597 c-43 -57 -28 -84 23 -41 34 28 38 45 17 63 -11 10 -19 5
-40 -22z"/>
<path d="M269 2513 c60 -73 76 -90 104 -108 15 -9 27 -13 27 -8 0 28 -124 153
-152 153 -5 0 4 -17 21 -37z"/>
<path d="M4754 2524 c-45 -31 -189 -151 -221 -186 l-22 -24 44 2 c40 2 52 9
124 73 88 79 141 136 141 151 0 17 -26 11 -66 -16z m-84 -119 c-19 -19 -39
-35 -44 -35 -11 1 62 70 73 70 3 0 -10 -16 -29 -35z"/>
<path d="M588 2469 c34 -34 66 -58 70 -55 9 9 -102 116 -120 116 -7 0 15 -28
50 -61z"/>
<path d="M4440 2450 c-23 -23 -26 -42 -6 -34 19 7 50 54 36 54 -5 0 -19 -9
-30 -20z"/>
<path d="M954 2406 c3 -25 12 -28 27 -9 7 10 9 15 5 11 -5 -4 -15 -3 -22 3 -9
7 -12 6 -10 -5z"/>
<path d="M30 2381 c0 -19 52 -71 71 -71 27 0 24 17 -10 51 -28 28 -61 39 -61
20z"/>
<path d="M5005 2274 c-55 -35 -171 -107 -257 -160 -226 -137 -226 -152 0 -31
222 120 367 212 370 236 2 11 0 21 -5 20 -4 0 -53 -29 -108 -65z"/>
<path d="M635 2240 c-3 -5 5 -16 17 -24 25 -18 31 -16 22 7 -7 19 -31 30 -39
17z"/>
<path d="M120 2205 c7 -8 17 -15 22 -15 6 0 5 7 -2 15 -7 8 -17 15 -22 15 -6
0 -5 -7 2 -15z"/>
<path d="M430 2149 c19 -20 76 -73 125 -119 l90 -85 -75 78 c-41 43 -97 97
-125 119 -44 36 -46 37 -15 7z"/>
<path d="M4785 1989 c-181 -99 -411 -224 -510 -277 -173 -93 -181 -98 -174
-122 4 -14 7 -44 8 -67 1 -24 3 -43 6 -43 8 0 245 106 560 250 171 78 340 155
378 172 l67 31 0 118 c0 66 -1 119 -2 119 -2 -1 -151 -82 -333 -181z"/>
<path d="M2 1808 l3 -133 165 -98 c91 -54 172 -101 180 -104 8 -3 22 -12 31
-20 27 -23 97 -35 117 -20 10 8 9 14 -5 29 -12 14 -18 15 -24 6 -5 -8 -8 -5
-6 9 1 16 5 19 13 12 7 -5 22 -12 34 -14 18 -3 20 -2 10 10 -7 8 -17 12 -24 8
-6 -3 -8 -3 -4 2 4 4 3 14 -3 22 -8 9 -8 13 -1 13 6 0 14 -5 17 -10 3 -6 17
-8 31 -6 14 3 22 1 19 -5 -4 -5 -11 -6 -17 -3 -7 4 -8 2 -4 -4 5 -9 13 -9 29
0 12 7 26 11 30 10 19 -6 -14 35 -40 48 -15 8 -30 18 -33 22 -3 4 -53 35 -110
71 -58 35 -168 111 -245 168 -77 58 -146 109 -153 113 -10 6 -12 -20 -10 -126z
m241 -96 c32 -33 35 -52 8 -52 -19 0 -71 52 -71 71 0 19 37 8 63 -19z m198
-239 c13 -16 12 -17 -3 -4 -10 7 -18 15 -18 17 0 8 8 3 21 -13z m53 -34 c-3
-5 -10 -7 -15 -3 -5 3 -7 10 -3 15 3 5 10 7 15 3 5 -3 7 -10 3 -15z"/>
<path d="M480 1814 c0 -14 3 -15 18 -3 9 7 19 15 21 16 2 2 -5 3 -17 3 -14 0
-22 -6 -22 -16z"/>
<path d="M4899 1633 c-13 -16 -12 -17 4 -4 9 7 17 15 17 17 0 8 -8 3 -21 -13z"/>
<path d="M4900 1544 c-113 -47 -217 -90 -232 -95 -14 -6 -29 -17 -32 -25 -3
-8 -2 -13 3 -10 5 3 11 -1 15 -9 3 -8 0 -15 -6 -15 -6 0 -9 -2 -6 -5 2 -3 103
31 224 76 120 44 227 83 237 86 12 4 17 16 17 44 0 22 -3 39 -7 39 -5 -1 -100
-39 -213 -86z"/>
<path d="M2 1588 c2 -6 64 -42 138 -81 74 -39 132 -67 128 -62 -15 16 -269
154 -266 143z"/>
<path d="M0 1456 l0 -63 110 -47 c61 -26 115 -44 122 -40 7 4 8 3 4 -4 -8 -13
4 -16 19 -4 16 12 17 35 1 29 -17 -7 -15 18 4 36 10 10 11 9 5 -2 -6 -11 -4
-13 9 -8 12 5 15 3 9 -6 -12 -19 -12 -37 -1 -37 7 0 6 -5 -1 -14 -15 -17 -1
-28 19 -15 9 5 10 9 3 9 -7 0 -10 15 -8 40 3 34 -1 43 -23 59 -24 16 -257 131
-268 131 -2 0 -4 -29 -4 -64z"/>
<path d="M605 1481 c-3 -5 -2 -12 3 -15 5 -3 9 1 9 9 0 17 -3 19 -12 6z"/>
<path d="M4973 1430 c-73 -27 -145 -56 -161 -64 -16 -8 -32 -13 -35 -9 -3 3
-5 -4 -4 -16 1 -11 7 -23 14 -25 12 -5 18 7 13 29 -1 6 2 6 7 2 4 -5 8 -15 8
-23 0 -18 20 -18 20 0 0 8 4 18 9 23 5 4 6 3 2 -4 -8 -15 10 -27 19 -12 4 5
14 8 22 4 9 -3 65 11 124 31 l109 36 0 39 c0 22 -3 39 -7 39 -5 -1 -67 -23
-140 -50z m-94 -64 c11 -14 6 -15 -27 -7 -4 1 8 21 12 21 2 0 9 -6 15 -14z"/>
<path d="M515 1430 c-10 -11 -16 -22 -14 -24 2 -2 12 7 22 20 22 29 17 32 -8
4z"/>
<path d="M4746 1335 c-3 -8 0 -17 6 -21 6 -4 8 -3 4 4 -3 5 -1 12 6 14 8 3 9
6 1 11 -6 4 -13 0 -17 -8z"/>
<path d="M314 1313 c2 -9 8 -19 14 -21 7 -2 9 -9 6 -14 -5 -7 -2 -8 6 -3 10 6
10 11 -3 20 -9 7 -14 14 -11 17 3 4 1 9 -4 12 -6 3 -9 -2 -8 -11z"/>
<path d="M4715 1319 c-4 -6 -5 -12 -2 -15 2 -3 7 2 10 11 7 17 1 20 -8 4z"/>
<path d="M4960 1306 c-25 -9 -31 -15 -20 -19 9 -4 5 -5 -8 -3 -12 2 -20 1 -17
-4 5 -8 -24 -25 -38 -21 -5 1 -5 -4 -1 -10 5 -9 2 -10 -10 -6 -10 4 -21 7 -24
7 -4 0 0 5 8 10 9 6 10 10 3 10 -22 0 -24 -19 -3 -30 14 -8 31 -8 57 -1 40 11
71 -2 44 -18 -17 -11 -1 -22 25 -17 26 5 97 19 107 21 4 2 14 3 22 4 11 1 15
13 15 47 0 51 8 48 -76 28 -19 -5 -25 -4 -20 5 9 14 -19 13 -64 -3z"/>
<path d="M2 802 c0 -251 2 -448 4 -437 3 11 14 70 25 130 26 136 103 372 132
403 21 23 33 57 16 46 -5 -3 -6 -10 -3 -16 4 -7 2 -8 -4 -4 -6 4 -9 13 -6 20
3 8 0 17 -5 21 -6 3 -9 11 -6 16 9 13 -19 11 -32 -2 -9 -9 -11 -7 -9 7 2 11
-2 22 -8 26 -8 5 -7 8 2 8 6 0 12 5 12 10 0 5 -5 9 -11 7 -14 -3 -21 31 -8 39
5 3 6 10 3 16 -5 7 -2 8 7 4 8 -4 6 -1 -3 7 -10 8 -14 18 -10 22 4 5 -1 5 -10
2 -9 -3 -21 0 -27 7 -14 16 -2 29 14 16 9 -8 14 -5 18 10 3 11 1 23 -4 26 -19
12 3 24 23 13 21 -11 21 -12 2 -26 -18 -15 -18 -15 3 -9 12 4 24 2 28 -4 4 -6
14 -9 22 -5 13 4 14 3 3 -10 -11 -13 -10 -14 5 -9 12 5 16 4 12 -3 -4 -7 0
-10 10 -8 10 1 17 8 16 14 -4 15 10 14 27 -1 12 -11 12 -10 0 5 -7 10 -19 16
-26 13 -7 -2 -20 4 -30 15 -14 15 -20 17 -32 6 -13 -10 -15 -9 -10 4 5 12 -7
21 -44 37 -28 12 -55 19 -59 16 -5 -3 -9 -1 -9 4 0 6 -6 12 -14 15 -11 5 -14
-67 -14 -451z m64 403 c-2 -7 0 -18 5 -24 6 -8 5 -8 -3 -1 -14 11 -19 52 -6
44 5 -4 7 -12 4 -19z m9 -124 c3 -5 2 -12 -3 -15 -5 -3 -9 1 -9 9 0 17 3 19
12 6z m75 -125 c0 -2 -8 -10 -17 -17 -16 -13 -17 -12 -4 4 13 16 21 21 21 13z
m4 -34 c3 -5 -1 -9 -9 -9 -8 0 -12 4 -9 9 3 4 7 8 9 8 2 0 6 -4 9 -8z"/>
<path d="M4827 1229 c7 -7 15 -10 18 -7 3 3 -2 9 -12 12 -14 6 -15 5 -6 -5z"/>
<path d="M97 1189 c7 -7 15 -10 18 -7 3 3 -2 9 -12 12 -14 6 -15 5 -6 -5z"/>
<path d="M5075 1180 c-4 -6 -11 -8 -16 -4 -5 3 -16 0 -24 -6 -8 -6 -19 -9 -24
-6 -6 4 -15 -3 -21 -14 -6 -11 -15 -18 -19 -15 -5 2 -14 -1 -20 -9 -14 -17
-23 -59 -11 -51 5 3 11 1 15 -5 6 -9 -8 -14 -28 -11 -5 1 -6 -3 -2 -9 3 -6 11
-8 16 -5 5 3 6 -1 3 -10 -5 -11 -10 -13 -19 -5 -8 7 -12 5 -12 -5 0 -8 3 -12
6 -10 11 6 37 -19 36 -35 0 -8 -7 -14 -16 -14 -21 2 -20 -27 2 -51 42 -47 100
-214 149 -432 l28 -128 1 386 c1 295 -2 388 -11 398 -10 11 -10 12 -1 7 9 -5
12 1 11 18 -2 26 -30 37 -43 16z m-14 -32 c6 -13 8 -20 4 -16 -4 4 -16 3 -25
-2 -13 -7 -21 -5 -30 5 -7 9 -10 18 -6 22 3 3 6 2 6 -3 0 -5 9 -10 20 -10 13
0 19 5 16 13 -9 22 2 15 15 -9z m-60 -59 c6 -12 5 -20 -3 -25 -7 -4 -8 -3 -4
4 4 7 1 12 -7 12 -9 0 -13 -9 -11 -25 1 -18 -4 -28 -19 -36 -19 -8 -20 -8 -7
3 19 16 19 40 0 64 -12 14 -12 16 -1 9 11 -6 13 -4 8 7 -14 37 23 26 44 -13z
m86 -4 c0 -8 -4 -12 -9 -9 -5 3 -6 10 -3 15 9 13 12 11 12 -6z m-36 -32 c12
-16 12 -17 -2 -6 -9 7 -20 9 -24 5 -5 -4 -5 -1 -1 6 9 16 11 15 27 -5z m-53
-37 c-10 -7 -14 -17 -10 -21 4 -5 1 -5 -7 0 -12 7 -11 10 4 22 24 17 36 17 13
-1z"/>
<path d="M4960 1116 c0 -2 8 -10 18 -17 15 -13 16 -12 3 4 -13 16 -21 21 -21
13z"/>
<path d="M174 1102 c4 -3 14 -7 22 -8 9 -1 13 0 10 4 -4 3 -14 7 -22 8 -9 1
-13 0 -10 -4z"/>
<path d="M120 1080 c-7 -4 -15 -16 -16 -24 -1 -9 2 -14 6 -11 5 3 11 1 15 -5
4 -6 12 -8 18 -4 7 3 5 0 -3 -8 -24 -21 -24 -41 -1 -29 14 8 20 8 23 -1 3 -7
10 -8 17 -4 9 6 7 14 -10 32 -12 13 -28 24 -35 24 -7 0 -16 5 -19 10 -11 17
33 5 57 -16 22 -19 22 -19 8 0 -14 18 -13 19 2 13 10 -3 20 -2 23 3 8 13 -9
20 -25 10 -9 -6 -20 -4 -30 5 -10 9 -21 11 -30 5z m51 -67 c12 -16 12 -17 -2
-6 -9 7 -20 9 -24 5 -5 -4 -5 -1 -1 6 9 16 11 15 27 -5z"/>
<path d="M226 1068 c3 -5 10 -6 15 -3 13 9 11 12 -6 12 -8 0 -12 -4 -9 -9z"/>
<path d="M4914 988 c-4 -7 -4 -10 1 -6 4 4 15 2 24 -5 14 -11 14 -10 2 6 -16
20 -18 21 -27 5z"/>
<path d="M180 970 c0 -5 5 -10 11 -10 5 0 7 5 4 10 -3 6 -8 10 -11 10 -2 0 -4
-4 -4 -10z"/>
<path d="M4835 763 c-20 -43 -47 -92 -61 -110 -41 -54 -11 -37 54 31 33 35 64
75 67 89 7 28 -1 67 -15 67 -4 0 -24 -35 -45 -77z"/>
<path d="M2823 575 c0 -22 2 -30 4 -17 2 12 2 30 0 40 -3 9 -5 -1 -4 -23z"/>
<path d="M235 590 c-4 -6 -12 -7 -18 -3 -7 4 -6 -1 2 -10 10 -13 17 -15 27 -6
8 6 11 15 8 20 -7 12 -11 11 -19 -1z"/>
<path d="M2530 233 c-1 -81 -15 -191 -26 -204 -8 -9 -11 -19 -7 -22 13 -13 51
-7 57 9 5 14 9 14 22 3 22 -18 97 -21 90 -3 -3 7 0 16 6 20 6 4 8 3 5 -3 -8
-12 17 -36 26 -26 4 3 3 11 -2 17 -9 10 -11 17 -11 32 0 4 -7 1 -15 -6 -8 -6
-20 -8 -26 -4 -8 5 -9 3 -5 -5 6 -8 2 -11 -10 -9 -11 2 -18 -2 -16 -9 3 -17
-10 -16 -34 1 -16 13 -21 12 -36 -1 -13 -11 -16 -12 -14 -1 1 7 5 18 9 25 4 6
2 15 -4 18 -7 5 -8 36 -3 96 3 49 4 89 0 89 -3 0 -6 -8 -6 -17z m115 -221 c-3
-3 -11 0 -18 7 -9 10 -8 11 6 5 10 -3 15 -9 12 -12z"/>
<path d="M221 187 c-41 -17 -76 -37 -78 -43 -2 -6 8 -16 23 -23 24 -10 30 -8
63 21 20 18 50 43 66 55 43 32 12 28 -74 -10z"/>
<path d="M4826 202 c5 -5 30 -28 55 -51 42 -37 49 -40 62 -27 8 8 18 12 22 8
5 -4 5 -1 0 7 -4 7 -36 26 -71 42 -65 30 -86 36 -68 21z m113 -53 c11 2 11 0
0 -12 -11 -11 -16 -10 -36 7 -29 25 -29 30 0 14 12 -7 28 -11 36 -9z"/>
<path d="M4805 161 c-6 -11 13 -26 22 -17 4 3 1 6 -6 6 -7 0 -9 5 -6 10 3 6 4
10 1 10 -3 0 -7 -4 -11 -9z"/>
<path d="M633 90 c27 -5 63 -14 80 -20 30 -10 31 -9 16 6 -11 11 -39 17 -80
20 -63 3 -63 3 -16 -6z"/>
<path d="M2616 72 c-3 -5 1 -9 9 -9 8 0 12 4 9 9 -3 4 -7 8 -9 8 -2 0 -6 -4
-9 -8z"/>
<path d="M2586 51 c-4 -5 -2 -12 3 -15 5 -4 12 -2 15 3 4 5 2 12 -3 15 -5 4
-12 2 -15 -3z"/>
<path d="M790 41 c8 -5 26 -12 40 -15 l25 -7 -25 15 c-14 9 -32 15 -40 15 -13
0 -13 -1 0 -8z"/>
</g>
</svg>
